<?xml version="1.0" encoding="utf-8"?>
<!-- Generator: Adobe Illustrator 17.0.1, SVG Export Plug-In . SVG Version: 6.00 Build 0)  -->
<!DOCTYPE svg PUBLIC "-//W3C//DTD SVG 1.1//EN" "http://www.w3.org/Graphics/SVG/1.1/DTD/svg11.dtd">
<svg version="1.1" id="Layer_1" xmlns="http://www.w3.org/2000/svg" xmlns:xlink="http://www.w3.org/1999/xlink" x="0px" y="0px"
	 width="24px" height="17px" viewBox="0 0 24 17" style="enable-background:new 0 0 24 17;" xml:space="preserve">
<style type="text/css">
	.st0{fill:#CCCCCC;}
	.st1{fill:none;}
</style>
<g>
	<g>
		<path d="M2162.3,2038.9c-22.2,0-40.3,17.8-40.8,40h-12.3l18.4,20.5l18.4-20.5h-14.3c0.5-16.5,14-29.7,30.6-29.7
			c16.9,0,30.7,13.8,30.7,30.8s-13.7,30.8-30.7,30.8c-6.8,0-13.1-2.2-18.1-6l-7,7.5c6.9,5.4,15.7,8.7,25.2,8.7
			c22.6,0,40.9-18.4,40.9-41S2184.9,2038.9,2162.3,2038.9z"/>
	</g>
</g>
<path class="st0" d="M21.6,0H10.1C9.6,0,8.9,0.3,8.5,0.6L0.3,7.9c-0.4,0.4-0.4,0.9,0,1.3l8.2,7.2c0.4,0.4,1.2,0.6,1.7,0.6h11.5
	c1.3,0,2.4-1.1,2.4-2.4V2.4C24,1.1,22.9,0,21.6,0z M18.2,13.4l-3.1-3.1L12,13.4l-1.7-1.8l3.1-3.1l-3.1-3.1L12,3.6l3.1,3.1l3.1-3.1
	L20,5.4l-3.1,3.1l3.1,3.1L18.2,13.4z"/>
<rect id="_x3C_Slice_x3E_" class="st1" width="24" height="17"/>
<g id="Layer_2">
</g>
</svg>
