<?xml version="1.0" encoding="utf-8"?>
<!-- Generator: Adobe Illustrator 17.0.1, SVG Export Plug-In . SVG Version: 6.00 Build 0)  -->
<!DOCTYPE svg PUBLIC "-//W3C//DTD SVG 1.1//EN" "http://www.w3.org/Graphics/SVG/1.1/DTD/svg11.dtd">
<svg version="1.1" id="Layer_1" xmlns="http://www.w3.org/2000/svg" xmlns:xlink="http://www.w3.org/1999/xlink" x="0px" y="0px"
	 width="38px" height="38px" viewBox="0 0 38 38" style="enable-background:new 0 0 38 38;" xml:space="preserve">
<style type="text/css">
	.st0{fill:#006837;}
	.st1{fill:#FFFFFF;}
	.st2{opacity:0.3;}
	.st3{fill:url(#SVGID_1_);}
	.st4{clip-path:url(#SVGID_3_);}
</style>
<g>
	<g>
		<path d="M4863.3,2089.9c-22.2,0-40.3,17.8-40.8,40h-12.3l18.4,20.5l18.4-20.5h-14.3c0.5-16.5,14-29.7,30.6-29.7
			c16.9,0,30.7,13.8,30.7,30.8s-13.7,30.8-30.7,30.8c-6.8,0-13.1-2.2-18.1-6l-7,7.5c6.9,5.4,15.7,8.7,25.2,8.7
			c22.6,0,40.9-18.4,40.9-41S4885.9,2089.9,4863.3,2089.9z"/>
	</g>
</g>
<g>
	<g>
		<g>
			<path class="st0" d="M19,37.5C8.8,37.5,0.5,29.2,0.5,19S8.8,0.5,19,0.5S37.5,8.8,37.5,19S29.2,37.5,19,37.5z"/>
			<path class="st1" d="M19,1c9.9,0,18,8.1,18,18s-8.1,18-18,18S1,28.9,1,19S9.1,1,19,1 M19,0C8.5,0,0,8.5,0,19s8.5,19,19,19
				s19-8.5,19-19S29.5,0,19,0L19,0z"/>
		</g>
		<g class="st2">
			<path class="st1" d="M23.4,5.5c3.8,0,7.4,1.2,10.3,3.2C30.4,4.1,25,1.1,19,1.1C9,1.1,1,9.1,1,19c0,6.1,3,11.5,7.7,14.7
				c-2-2.9-3.2-6.4-3.2-10.3C5.4,13.5,13.5,5.5,23.4,5.5z"/>
		</g>
		<g>
			
				<linearGradient id="SVGID_1_" gradientUnits="userSpaceOnUse" x1="-161.4973" y1="150.1213" x2="-51.3078" y2="179.1991" gradientTransform="matrix(1 0 0 -1 127.715 183.05)">
				<stop  offset="0" style="stop-color:#FFFFFF"/>
				<stop  offset="0.1194" style="stop-color:#B7B7B7"/>
				<stop  offset="0.1377" style="stop-color:#C9C9C9"/>
				<stop  offset="0.1675" style="stop-color:#E0E0E0"/>
				<stop  offset="0.1957" style="stop-color:#EDEDED"/>
				<stop  offset="0.2204" style="stop-color:#F2F2F2"/>
				<stop  offset="0.2458" style="stop-color:#ECECEC"/>
				<stop  offset="0.2789" style="stop-color:#DCDCDC"/>
				<stop  offset="0.316" style="stop-color:#C1C1C1"/>
				<stop  offset="0.328" style="stop-color:#B7B7B7"/>
				<stop  offset="0.3605" style="stop-color:#C2C2C2"/>
				<stop  offset="0.418" style="stop-color:#E0E0E0"/>
				<stop  offset="0.4677" style="stop-color:#FFFFFF"/>
				<stop  offset="0.5227" style="stop-color:#E0E0E0"/>
				<stop  offset="0.5914" style="stop-color:#B3B3B3"/>
				<stop  offset="0.7204" style="stop-color:#FFFFFF"/>
				<stop  offset="0.8172" style="stop-color:#CCCCCC"/>
				<stop  offset="1" style="stop-color:#CCCCCC"/>
			</linearGradient>
			<ellipse class="st3" cx="19" cy="19" rx="11" ry="11"/>
		</g>
		<g>
			<g>
				<defs>
					<circle id="SVGID_2_" cx="19" cy="19" r="11"/>
				</defs>
				<clipPath id="SVGID_3_">
					<use xlink:href="#SVGID_2_"  style="overflow:visible;"/>
				</clipPath>
				<g class="st4">
					<g>
						<path class="st1" d="M19.1,7c6.3,0,11.4,4.4,11.9,10c0-0.3,0.1-0.7,0.1-1c0-6.1-5.4-11-12-11s-12,4.9-12,11c0,0.3,0,0.7,0.1,1
							C7.7,11.4,12.9,7,19.1,7z"/>
					</g>
				</g>
			</g>
		</g>
	</g>
</g>
<g id="Layer_2">
</g>
</svg>
