<?xml version="1.0" encoding="utf-8"?>
<!-- Generator: Adobe Illustrator 17.0.1, SVG Export Plug-In . SVG Version: 6.00 Build 0)  -->
<!DOCTYPE svg PUBLIC "-//W3C//DTD SVG 1.1//EN" "http://www.w3.org/Graphics/SVG/1.1/DTD/svg11.dtd">
<svg version="1.1" id="Layer_1" xmlns="http://www.w3.org/2000/svg" xmlns:xlink="http://www.w3.org/1999/xlink" x="0px" y="0px"
	 width="24px" height="54px" viewBox="0 0 24 54" style="enable-background:new 0 0 24 54;" xml:space="preserve">
<style type="text/css">
	.st0{fill:#0071BC;}
	.st1{fill:#CCCCCC;}
</style>
<g>
	<g>
		<path d="M1878.3,2219.9c-22.2,0-40.3,17.8-40.8,40h-12.3l18.4,20.5l18.4-20.5h-14.3c0.5-16.5,14-29.7,30.6-29.7
			c16.9,0,30.7,13.8,30.7,30.8s-13.7,30.8-30.7,30.8c-6.8,0-13.1-2.2-18.1-6l-7,7.5c6.9,5.4,15.7,8.7,25.2,8.7
			c22.6,0,40.9-18.4,40.9-41S1900.9,2219.9,1878.3,2219.9z"/>
	</g>
</g>
<path class="st0" d="M21,30H3c-1.6,0-3,1.4-3,3v18c0,1.7,1.4,3,3,3h9.1v-8.6H9.2v-3.7h2.9v-1.9c0-2.9,2.1-5.2,4.9-5.2h2.6v4.2h-2.4
	c-0.6,0-0.8,0.4-0.8,0.8v2h3.2v3.7h-3.2V54H21c1.7,0,3-1.3,3-3V33C24,31.4,22.7,30,21,30z"/>
<path class="st1" d="M21,0H3C1.4,0,0,1.4,0,3v18c0,1.7,1.4,3,3,3h9.1v-8.6H9.2v-3.7h2.9V9.8c0-2.9,2.1-5.2,4.9-5.2h2.6v4.2h-2.4
	c-0.6,0-0.8,0.4-0.8,0.8v2h3.2v3.7h-3.2V24H21c1.7,0,3-1.3,3-3V3C24,1.4,22.7,0,21,0z"/>
<g id="Layer_2">
</g>
</svg>
