<?xml version="1.0" encoding="utf-8"?>
<!-- Generator: Adobe Illustrator 17.0.1, SVG Export Plug-In . SVG Version: 6.00 Build 0)  -->
<!DOCTYPE svg PUBLIC "-//W3C//DTD SVG 1.1//EN" "http://www.w3.org/Graphics/SVG/1.1/DTD/svg11.dtd">
<svg version="1.1" id="Layer_1" xmlns="http://www.w3.org/2000/svg" xmlns:xlink="http://www.w3.org/1999/xlink" x="0px" y="0px"
	 width="280px" height="140px" viewBox="-0.8 -0.9 280 140" style="enable-background:new -0.8 -0.9 280 140;" xml:space="preserve"
	>
<style type="text/css">
	.st0{opacity:0.6;fill:#999999;enable-background:new    ;}
	.st1{fill:url(#SVGID_1_);}
	.st2{opacity:0.3;fill:#FFFFFF;enable-background:new    ;}
	.st3{fill:url(#SVGID_2_);}
	.st4{fill:url(#SVGID_3_);}
	.st5{opacity:0.1;}
	.st6{opacity:0.3;}
	.st7{fill:none;stroke:#000000;stroke-width:4;stroke-linecap:round;stroke-linejoin:round;stroke-miterlimit:10;}
	.st8{fill:none;stroke:#FFFFFF;stroke-width:4;stroke-linecap:round;stroke-linejoin:round;stroke-miterlimit:10;}
</style>
<g id="Layer_1_1_">
	<g>
		<path class="st0" d="M0,10.8c4.4,33.9,21.6,65.5,46.9,87.7c12.7,11.1,27.2,20,43,25.9c15.7,6,32.5,9,49.3,9
			c16.8,0.1,33.6-3,49.3-9c15.7-5.9,30.3-14.8,43-25.9c25.3-22.2,42.5-53.8,46.9-87.7l0,0c-0.3,4.3-0.9,8.5-1.6,12.7
			c-0.8,4.2-1.7,8.4-2.9,12.5c-2.3,8.3-5.4,16.3-9.1,24.1c-7.6,15.4-18.1,29.5-30.9,41.2c-12.7,11.7-27.7,21-43.8,27.3
			c-16.2,6.3-33.5,9.5-50.9,9.5s-34.7-3.2-50.9-9.5c-16.1-6.3-31.1-15.6-43.8-27.3C31.7,89.6,21.2,75.6,13.6,60.1
			C9.8,52.4,6.8,44.3,4.5,36c-1.1-4.1-2.1-8.3-2.9-12.5C0.9,19.3,0.3,15.1,0,10.8L0,10.8z"/>
		
			<linearGradient id="SVGID_1_" gradientUnits="userSpaceOnUse" x1="-147.7997" y1="333.011" x2="186.4483" y2="140.0328" gradientTransform="matrix(1 0 0 -1 127.715 283.2499)">
			<stop  offset="0" style="stop-color:#FFFFFF"/>
			<stop  offset="0.1194" style="stop-color:#B7B7B7"/>
			<stop  offset="0.1377" style="stop-color:#C9C9C9"/>
			<stop  offset="0.1675" style="stop-color:#E0E0E0"/>
			<stop  offset="0.1957" style="stop-color:#EDEDED"/>
			<stop  offset="0.2204" style="stop-color:#F2F2F2"/>
			<stop  offset="0.2458" style="stop-color:#ECECEC"/>
			<stop  offset="0.2789" style="stop-color:#DCDCDC"/>
			<stop  offset="0.316" style="stop-color:#C1C1C1"/>
			<stop  offset="0.328" style="stop-color:#B7B7B7"/>
			<stop  offset="0.3605" style="stop-color:#C2C2C2"/>
			<stop  offset="0.418" style="stop-color:#E0E0E0"/>
			<stop  offset="0.4677" style="stop-color:#FFFFFF"/>
			<stop  offset="0.5227" style="stop-color:#E0E0E0"/>
			<stop  offset="0.5914" style="stop-color:#B3B3B3"/>
			<stop  offset="0.7204" style="stop-color:#FFFFFF"/>
			<stop  offset="0.8172" style="stop-color:#CCCCCC"/>
			<stop  offset="1" style="stop-color:#CCCCCC"/>
		</linearGradient>
		<path class="st1" d="M278.2,10.8C277.9,5,268.1,0.3,256.1,0.3C244,0.3,234.2,5,234,10.9c-7.3,45.9-47,80.9-94.8,80.9
			s-87.6-35-94.8-81h-0.2l0,0c0-6-9.9-10.8-22.1-10.8C9.9,0,0,4.8,0,10.8c0,0.4,0.1,0.8,0.2,1.3c8.1,69.4,67.2,123.7,139,123.7
			c72.3,0,131.7-55,139.2-125C278.4,10.8,278.2,10.8,278.2,10.8z"/>
		<path class="st2" d="M139,118.9C84.1,118.9,35.4,82,20.5,29.3c3,12.9,8.5,25.4,15.8,36.6s16.6,21.3,27.2,29.6s22.7,14.8,35.5,19.3
			c12.8,4.4,26.4,8,39.9,8c13.6,0,27.1-3.6,39.9-8c12.8-4.5,24.9-10.9,35.5-19.3c10.7-8.3,19.9-18.3,27.2-29.6s12.7-23.7,15.8-36.6
			l0,0C242.5,82,193.8,118.9,139,118.9z"/>
		<g>
			
				<linearGradient id="SVGID_2_" gradientUnits="userSpaceOnUse" x1="2399.6372" y1="-87.0834" x2="2399.6372" y2="-430.7961" gradientTransform="matrix(-1 0 0 1 2538.6372 280.3747)">
				<stop  offset="0" style="stop-color:#FFFFFF"/>
				<stop  offset="0.1194" style="stop-color:#B7B7B7"/>
				<stop  offset="0.1377" style="stop-color:#C9C9C9"/>
				<stop  offset="0.1675" style="stop-color:#E0E0E0"/>
				<stop  offset="0.1957" style="stop-color:#EDEDED"/>
				<stop  offset="0.2204" style="stop-color:#F2F2F2"/>
				<stop  offset="0.2458" style="stop-color:#ECECEC"/>
				<stop  offset="0.2789" style="stop-color:#DCDCDC"/>
				<stop  offset="0.316" style="stop-color:#C1C1C1"/>
				<stop  offset="0.328" style="stop-color:#B7B7B7"/>
				<stop  offset="0.3605" style="stop-color:#C2C2C2"/>
				<stop  offset="0.418" style="stop-color:#E0E0E0"/>
				<stop  offset="0.4677" style="stop-color:#FFFFFF"/>
				<stop  offset="0.5227" style="stop-color:#E0E0E0"/>
				<stop  offset="0.5914" style="stop-color:#B3B3B3"/>
				<stop  offset="0.7204" style="stop-color:#FFFFFF"/>
				<stop  offset="0.8172" style="stop-color:#CCCCCC"/>
				<stop  offset="1" style="stop-color:#CCCCCC"/>
			</linearGradient>
			<path class="st3" d="M252.6,20.8c0.5,0,1.1,0.1,1.6,0.2c3.2,0.9,5.1,4.2,4.2,7.4c-14.9,53.3-64,90.5-119.4,90.5
				S34.5,81.7,19.6,28.4c-0.9-3.2,1-6.5,4.2-7.4s6.5,1,7.4,4.2c13.5,48.1,57.8,81.7,107.9,81.7S233.5,73.3,247,25.2
				C247.6,22.5,250,20.8,252.6,20.8z"/>
		</g>
		<g>
			
				<linearGradient id="SVGID_3_" gradientUnits="userSpaceOnUse" x1="2280.0137" y1="-210.4865" x2="2519.2607" y2="-210.4865" gradientTransform="matrix(-1 0 0 1 2538.6372 280.3747)">
				<stop  offset="0" style="stop-color:#96B4E0"/>
				<stop  offset="1" style="stop-color:#E2D396"/>
			</linearGradient>
			<path class="st4" d="M252.6,20.8c0.5,0,1.1,0.1,1.6,0.2c3.2,0.9,5.1,4.2,4.2,7.4c-14.9,53.3-64,90.5-119.4,90.5
				S34.5,81.7,19.6,28.4c-0.9-3.2,1-6.5,4.2-7.4s6.5,1,7.4,4.2c13.5,48.1,57.8,81.7,107.9,81.7S233.5,73.3,247,25.2
				C247.6,22.5,250,20.8,252.6,20.8z"/>
		</g>
		<g class="st5">
			<path d="M252.6,20.8c0.5,0,1.1,0.1,1.6,0.2c3.2,0.9,5.1,4.2,4.2,7.4c-14.9,53.3-64,90.5-119.4,90.5S34.5,81.7,19.6,28.4
				c-0.9-3.2,1-6.5,4.2-7.4s6.5,1,7.4,4.2c13.5,48.1,57.8,81.7,107.9,81.7S233.5,73.3,247,25.2C247.6,22.5,250,20.8,252.6,20.8z"/>
		</g>
		<g class="st6">
			<g class="st6">
				<path class="st7" d="M25.3,27.8c13.9,49.7,59.5,86.1,113.6,86.1s99.7-36.4,113.6-86.1"/>
			</g>
			<g>
				<path class="st8" d="M25.3,26.8c13.9,49.7,59.5,86.1,113.6,86.1s99.7-36.4,113.6-86.1"/>
			</g>
		</g>
	</g>
</g>
<g id="Layer_2">
</g>
</svg>
