<?xml version="1.0" encoding="utf-8"?>
<!-- Generator: Adobe Illustrator 17.0.1, SVG Export Plug-In . SVG Version: 6.00 Build 0)  -->
<!DOCTYPE svg PUBLIC "-//W3C//DTD SVG 1.1//EN" "http://www.w3.org/Graphics/SVG/1.1/DTD/svg11.dtd">
<svg version="1.1" id="Layer_1" xmlns="http://www.w3.org/2000/svg" xmlns:xlink="http://www.w3.org/1999/xlink" x="0px" y="0px"
	 width="280px" height="140px" viewBox="0 -2 280 140" style="enable-background:new 0 -2 280 140;" xml:space="preserve">
<style type="text/css">
	.st0{fill:url(#SVGID_1_);}
	.st1{fill:url(#SVGID_2_);}
	.st2{opacity:0.3;fill:#FFFFFF;enable-background:new    ;}
	.st3{fill:url(#SVGID_3_);}
	.st4{opacity:0.1;}
	.st5{opacity:0.3;}
	.st6{fill:none;stroke:#000000;stroke-width:4;stroke-linecap:round;stroke-linejoin:round;stroke-miterlimit:10;}
	.st7{fill:none;stroke:#FFFFFF;stroke-width:4;stroke-linecap:round;stroke-linejoin:round;stroke-miterlimit:10;}
</style>
<g id="Layer_1_1_">
	<g>
		
			<linearGradient id="SVGID_1_" gradientUnits="userSpaceOnUse" x1="-261.6142" y1="957.6995" x2="19.5186" y2="676.5668" gradientTransform="matrix(1 0 0 1 255.43 -707.1)">
			<stop  offset="0" style="stop-color:#FFFFFF"/>
			<stop  offset="0.1194" style="stop-color:#B7B7B7"/>
			<stop  offset="0.1377" style="stop-color:#C9C9C9"/>
			<stop  offset="0.1675" style="stop-color:#E0E0E0"/>
			<stop  offset="0.1957" style="stop-color:#EDEDED"/>
			<stop  offset="0.2204" style="stop-color:#F2F2F2"/>
			<stop  offset="0.2458" style="stop-color:#ECECEC"/>
			<stop  offset="0.2789" style="stop-color:#DCDCDC"/>
			<stop  offset="0.316" style="stop-color:#C1C1C1"/>
			<stop  offset="0.328" style="stop-color:#B7B7B7"/>
			<stop  offset="0.3605" style="stop-color:#C2C2C2"/>
			<stop  offset="0.418" style="stop-color:#E0E0E0"/>
			<stop  offset="0.4677" style="stop-color:#FFFFFF"/>
			<stop  offset="0.5227" style="stop-color:#E0E0E0"/>
			<stop  offset="0.5914" style="stop-color:#B3B3B3"/>
			<stop  offset="0.7204" style="stop-color:#FFFFFF"/>
			<stop  offset="0.8172" style="stop-color:#CCCCCC"/>
			<stop  offset="1" style="stop-color:#CCCCCC"/>
		</linearGradient>
		<path class="st0" d="M279.2,125.1c-7.5-70-66.9-125-139.2-125C68.2,0.1,9,54.4,1,123.8c-0.1,0.4-0.2,0.9-0.2,1.3
			c0,6,9.9,10.8,22.1,10.8S45,131.1,45,125.1h0.2c7.2-46,47-81,94.8-81S227.5,79,234.8,125v0.1c0,6,9.9,10.8,22.1,10.8
			c12.2,0,22.1-4.8,22.1-10.8H279.2z"/>
		<g>
			
				<linearGradient id="SVGID_2_" gradientUnits="userSpaceOnUse" x1="-115.73" y1="648.8898" x2="-115.73" y2="992.6025" gradientTransform="matrix(1 0 0 1 255.43 -707.1)">
				<stop  offset="0" style="stop-color:#FFFFFF"/>
				<stop  offset="0.1194" style="stop-color:#B7B7B7"/>
				<stop  offset="0.1377" style="stop-color:#C9C9C9"/>
				<stop  offset="0.1675" style="stop-color:#E0E0E0"/>
				<stop  offset="0.1957" style="stop-color:#EDEDED"/>
				<stop  offset="0.2204" style="stop-color:#F2F2F2"/>
				<stop  offset="0.2458" style="stop-color:#ECECEC"/>
				<stop  offset="0.2789" style="stop-color:#DCDCDC"/>
				<stop  offset="0.316" style="stop-color:#C1C1C1"/>
				<stop  offset="0.328" style="stop-color:#B7B7B7"/>
				<stop  offset="0.3605" style="stop-color:#C2C2C2"/>
				<stop  offset="0.418" style="stop-color:#E0E0E0"/>
				<stop  offset="0.4677" style="stop-color:#FFFFFF"/>
				<stop  offset="0.5227" style="stop-color:#E0E0E0"/>
				<stop  offset="0.5914" style="stop-color:#B3B3B3"/>
				<stop  offset="0.7204" style="stop-color:#FFFFFF"/>
				<stop  offset="0.8172" style="stop-color:#CCCCCC"/>
				<stop  offset="1" style="stop-color:#CCCCCC"/>
			</linearGradient>
			<path class="st1" d="M26.1,114.2c-0.5,0-1.1-0.1-1.6-0.2c-3.2-0.9-5.1-4.2-4.2-7.4c14.9-53.3,64.1-90.5,119.4-90.5
				c55.4,0,104.5,37.2,119.4,90.5c0.9,3.2-1,6.5-4.2,7.4c-3.2,0.9-6.5-1-7.4-4.2c-13.4-48.1-57.7-81.7-107.8-81.7
				S45.4,61.7,31.9,109.8C31.1,112.5,28.7,114.2,26.1,114.2z"/>
		</g>
		<path class="st2" d="M139.7,28.1c-50.1,0-94.6,33.9-108.2,83.1h0.1c3.8-11.8,9.3-22.9,16.3-32.8s15.6-18.7,25.2-25.9
			c19.2-14.4,42.8-21.5,66.6-21.4c23.7-0.1,47.4,7,66.6,21.4c9.6,7.2,18.2,15.9,25.2,25.9c7.1,9.9,12.6,21,16.4,32.8
			C234.3,61.9,189.8,28.1,139.7,28.1z"/>
		<g>
			
				<linearGradient id="SVGID_3_" gradientUnits="userSpaceOnUse" x1="-235.3536" y1="772.2618" x2="3.8936" y2="772.2618" gradientTransform="matrix(1 0 0 1 255.43 -707.1)">
				<stop  offset="0" style="stop-color:#8CC63F"/>
				<stop  offset="4.419347e-002" style="stop-color:#A5CF38"/>
				<stop  offset="0.12" style="stop-color:#CBDC2E"/>
				<stop  offset="0.1903" style="stop-color:#E6E627"/>
				<stop  offset="0.2525" style="stop-color:#F6EC23"/>
				<stop  offset="0.3" style="stop-color:#FCEE21"/>
				<stop  offset="0.3543" style="stop-color:#FCE521"/>
				<stop  offset="0.4429" style="stop-color:#FACD20"/>
				<stop  offset="0.5541" style="stop-color:#F8A51F"/>
				<stop  offset="0.6" style="stop-color:#F7931E"/>
				<stop  offset="1" style="stop-color:#C1272D"/>
			</linearGradient>
			<path class="st3" d="M26.1,114.2c-0.5,0-1.1-0.1-1.6-0.2c-3.2-0.9-5.1-4.2-4.2-7.4c14.9-53.3,64.1-90.5,119.4-90.5
				c55.4,0,104.5,37.2,119.4,90.5c0.9,3.2-1,6.5-4.2,7.4c-3.2,0.9-6.5-1-7.4-4.2c-13.4-48.1-57.7-81.7-107.8-81.7
				S45.4,61.7,31.9,109.8C31.1,112.5,28.7,114.2,26.1,114.2z"/>
		</g>
		<g class="st4">
			<path d="M26.1,114.2c-0.5,0-1.1-0.1-1.6-0.2c-3.2-0.9-5.1-4.2-4.2-7.4c14.9-53.3,64.1-90.5,119.4-90.5
				c55.4,0,104.5,37.2,119.4,90.5c0.9,3.2-1,6.5-4.2,7.4c-3.2,0.9-6.5-1-7.4-4.2c-13.4-48.1-57.7-81.7-107.8-81.7
				S45.4,61.7,31.9,109.8C31.1,112.5,28.7,114.2,26.1,114.2z"/>
		</g>
		<g class="st5">
			<g class="st5">
				<path class="st6" d="M253.4,109.2c-13.9-49.7-59.5-86.1-113.7-86.1S40,59.5,26.1,109.2"/>
			</g>
			<g>
				<path class="st7" d="M253.4,108.2c-13.9-49.7-59.5-86.1-113.7-86.1S40,58.5,26.1,108.2"/>
			</g>
		</g>
	</g>
</g>
<g id="Layer_2">
</g>
</svg>
