<?xml version="1.0" encoding="utf-8"?>
<!-- Generator: Adobe Illustrator 17.0.1, SVG Export Plug-In . SVG Version: 6.00 Build 0)  -->
<!DOCTYPE svg PUBLIC "-//W3C//DTD SVG 1.1//EN" "http://www.w3.org/Graphics/SVG/1.1/DTD/svg11.dtd">
<svg version="1.1" id="Layer_1" xmlns="http://www.w3.org/2000/svg" xmlns:xlink="http://www.w3.org/1999/xlink" x="0px" y="0px"
	 width="24px" height="54px" viewBox="0 0 24 54" style="enable-background:new 0 0 24 54;" xml:space="preserve">
<style type="text/css">
	.st0{fill:#CCCCCC;}
	.st1{fill:#0071BC;}
</style>
<g>
	<g>
		<path d="M1878.3,2219.9c-22.2,0-40.3,17.8-40.8,40h-12.3l18.4,20.5l18.4-20.5h-14.3c0.5-16.5,14-29.7,30.6-29.7
			c16.9,0,30.7,13.8,30.7,30.8s-13.7,30.8-30.7,30.8c-6.8,0-13.1-2.2-18.1-6l-7,7.5c6.9,5.4,15.7,8.7,25.2,8.7
			c22.6,0,40.9-18.4,40.9-41S1900.9,2219.9,1878.3,2219.9z"/>
	</g>
</g>
<path class="st0" d="M23.2,5.1c-0.8,0.4-1.7,0.6-2.6,0.7c0.9-0.6,1.7-1.5,2-2.5c-0.9,0.5-1.9,0.9-2.9,1.1c-0.8-0.9-2-1.4-3.3-1.4
	c-2.5,0-4.6,2-4.6,4.6c0,0.4,0,0.7,0.1,1C8,8.4,4.7,6.5,2.4,3.8C2,4.4,1.8,5.2,1.8,6.1c0,1.6,0.8,3,2,3.8c-0.7,0-1.5-0.2-2.1-0.6
	c0,0,0,0,0,0.1c0,2.2,1.6,4.1,3.7,4.5C5,14,4.6,14,4.2,14c-0.3,0-0.6,0-0.9-0.1c0.6,1.8,2.3,3.1,4.3,3.2c-1.6,1.2-3.5,2-5.7,2
	c-0.4,0-0.7,0-1.1-0.1c2,1.3,4.4,2.1,7,2.1c8.4,0,13-7,13-13c0-0.2,0-0.4,0-0.6C21.8,6.8,22.5,6,23.2,5.1z"/>
<path class="st1" d="M23.2,35.1c-0.8,0.4-1.7,0.6-2.6,0.7c0.9-0.6,1.7-1.5,2-2.5c-0.9,0.5-1.9,0.9-2.9,1.1c-0.8-0.9-2-1.4-3.3-1.4
	c-2.5,0-4.6,2-4.6,4.6c0,0.4,0,0.7,0.1,1c-3.8-0.2-7.2-2-9.4-4.8c-0.4,0.7-0.6,1.5-0.6,2.3c0,1.6,0.8,3,2,3.8
	c-0.7,0-1.5-0.2-2.1-0.6c0,0,0,0,0,0.1c0,2.2,1.6,4.1,3.7,4.5C5,44,4.6,44,4.2,44c-0.3,0-0.6,0-0.9-0.1c0.6,1.8,2.3,3.1,4.3,3.2
	c-1.6,1.2-3.5,2-5.7,2c-0.4,0-0.7,0-1.1-0.1c2,1.3,4.4,2.1,7,2.1c8.4,0,13-7,13-13c0-0.2,0-0.4,0-0.6C21.8,36.8,22.5,36,23.2,35.1z"
	/>
<g id="Layer_2">
</g>
</svg>
