<?xml version="1.0" encoding="utf-8"?>
<!-- Generator: Adobe Illustrator 17.0.1, SVG Export Plug-In . SVG Version: 6.00 Build 0)  -->
<!DOCTYPE svg PUBLIC "-//W3C//DTD SVG 1.1//EN" "http://www.w3.org/Graphics/SVG/1.1/DTD/svg11.dtd">
<svg version="1.1" id="Layer_1" xmlns="http://www.w3.org/2000/svg" xmlns:xlink="http://www.w3.org/1999/xlink" x="0px" y="0px"
	 width="200px" height="66.4px" viewBox="0 0 200 66.4" style="enable-background:new 0 0 200 66.4;" xml:space="preserve">
<style type="text/css">
	.st0{fill-rule:evenodd;clip-rule:evenodd;fill:#005CB9;}
	.st1{fill-rule:evenodd;clip-rule:evenodd;fill:#231F20;}
</style>
<g>
	<g>
		<path class="st0" d="M63.7,8.1c-2.7,1.9-5.8,3.1-9.3,3.4c-6,0.5-11.6-1.7-15.4-5.7c2.6,0.9,5.4,1.4,8.3,1.1
			c3.5-0.3,6.7-1.5,9.3-3.4c2.7-1.9,5.8-3.1,9.3-3.4c6-0.5,11.6,1.7,15.4,5.7c-2.6-1-5.4-1.3-8.3-1.1C69.6,5,66.4,6.3,63.7,8.1z"/>
		<path class="st0" d="M70.4,19.8c-2.7,1.9-5.8,3.1-9.3,3.4c-6,0.5-11.6-1.7-15.4-5.7c2.6,0.9,5.4,1.4,8.3,1.1
			c3.5-0.3,6.7-1.5,9.3-3.4c2.7-1.9,5.8-3.1,9.3-3.4c6-0.5,11.6,1.8,15.4,5.7c-2.6-0.9-5.4-1.3-8.3-1.1
			C76.3,16.6,73.1,17.9,70.4,19.8z"/>
		<path class="st0" d="M77.2,31.4c-2.7,1.9-5.8,3.1-9.3,3.4c-6,0.5-11.6-1.7-15.4-5.7c2.6,0.9,5.4,1.4,8.3,1.1
			c3.5-0.3,6.7-1.5,9.3-3.4c2.7-1.9,5.8-3.1,9.3-3.4c6-0.5,11.6,1.7,15.4,5.7c-2.6-0.9-5.4-1.3-8.3-1.1C83,28.2,79.8,29.5,77.2,31.4
			z"/>
		<polygon class="st0" points="33.1,1.4 54.1,37.7 37.5,66.4 0,1.4 		"/>
	</g>
	<g>
		<polygon class="st1" points="102.5,20.8 102.5,13.1 103.2,13.1 103.2,16.9 106,13.1 106.8,13.1 104.5,16.2 106.9,20.8 106.2,20.8 
			104.1,16.7 103.2,17.9 103.2,20.8 		"/>
		<path class="st1" d="M113.9,13.1l2.1,7.7h-0.7l-0.6-2.4h-2.3l-0.6,2.4H111l2.1-7.7H113.9L113.9,13.1z M114.5,17.8l-1-3.9h0l-1,3.9
			H114.5z"/>
		<polygon class="st1" points="124.4,19.7 124.4,19.7 124.4,13.1 125,13.1 125,20.8 124.2,20.8 121.4,14.2 121.4,14.2 121.4,20.8 
			120.7,20.8 120.7,13.1 121.5,13.1 		"/>
		<path class="st1" d="M132.6,13.1l2.1,7.7H134l-0.6-2.4h-2.3l-0.6,2.4h-0.6l2.1-7.7H132.6L132.6,13.1z M133.3,17.8l-1-3.9h0l-1,3.9
			H133.3z"/>
		<polygon class="st1" points="139.5,20.8 139.5,13.1 140.2,13.1 140.2,20.2 143,20.2 143,20.8 		"/>
		<rect x="148.1" y="13.1" class="st1" width="0.7" height="7.7"/>
		<polygon class="st1" points="153.8,20.8 153.8,20.2 157,13.7 153.9,13.7 153.9,13.1 157.7,13.1 157.7,13.7 154.5,20.2 157.7,20.2 
			157.7,20.8 		"/>
		<path class="st1" d="M164.9,13.1l2.1,7.7h-0.7l-0.6-2.4h-2.3l-0.6,2.4h-0.6l2.1-7.7H164.9L164.9,13.1z M165.6,17.8l-1-3.9h0
			l-1,3.9H165.6z"/>
		<path class="st1" d="M176.1,18.2c0,1.3-0.6,2.8-2.2,2.8c-2.2,0-2.2-2.6-2.2-4.3c0-1.6,0.2-3.8,2.3-3.8c1.4,0,2.1,1.1,2.1,2.4h-0.7
			c-0.1-0.9-0.4-1.8-1.5-1.8c-1.6,0-1.6,2.3-1.6,3.4c0,1.2-0.1,3.5,1.6,3.5c1.2,0,1.4-1.3,1.4-2.2H176.1z"/>
		<rect x="181.5" y="13.1" class="st1" width="0.7" height="7.7"/>
		<path class="st1" d="M187.7,18.5v0.2c0,0.8,0,1.7,0.9,1.7c0.8,0,0.8-0.7,0.8-1.3v-6h0.7v6.1c0,1.1-0.4,1.8-1.6,1.8
			c-1.2,0-1.5-0.9-1.6-1.9v-0.5H187.7z"/>
		<path class="st1" d="M197.8,13.1l2.1,7.7h-0.7l-0.6-2.4h-2.3l-0.6,2.4H195l2.1-7.7H197.8L197.8,13.1z M198.4,17.8l-1-3.9h0l-1,3.9
			H198.4z"/>
		<path class="st1" d="M106.4,1.4h1.5l-1.7,7.7h-1.9l-1.7-7.7h1.5l0.9,4.9c0.1,0.4,0.1,0.9,0.2,1.3c0,0.2,0.1,0.4,0.1,0.6h0
			c0-0.2,0-0.4,0.1-0.6c0-0.4,0.1-0.9,0.2-1.3L106.4,1.4z"/>
		<path class="st1" d="M118,4.6c0.1-2,0.2-3.4,2.5-3.4c2.3,0,2.5,1.5,2.5,3.4v1.1c0,2.1-0.2,3.6-2.5,3.6c-2.4,0-2.5-1.5-2.5-3.6V4.6
			L118,4.6z M119.5,6.5c0,0.6,0.1,1.7,1,1.7c1,0,1-1.1,1-1.8v-2c0-0.6,0-2-1-2c-1.1,0-1,1.3-1,1.9V6.5z"/>
		<path class="st1" d="M133.6,9.1V1.4h3c0.4,0,1.1,0.2,1.5,0.9c0.3,0.5,0.4,1.4,0.4,2.7c0,1.5,0,3.3-1.2,4c-0.3,0.2-0.7,0.2-1.1,0.2
			H133.6L133.6,9.1z M135.7,8c1.3,0,1.4-0.7,1.4-2.9c0-1.8-0.2-2.5-1.1-2.5H135V8H135.7z"/>
		<path class="st1" d="M149,4.6c0.1-2,0.2-3.4,2.5-3.4c2.3,0,2.5,1.5,2.5,3.4v1.1c0,2.1-0.2,3.6-2.5,3.6c-2.4,0-2.5-1.5-2.5-3.6V4.6
			L149,4.6z M150.5,6.5c0,0.6,0.1,1.7,1,1.7c1,0,1-1.1,1-1.8v-2c0-0.6,0-2-1-2c-1.1,0-1,1.3-1,1.9V6.5z"/>
		<path class="st1" d="M167.9,1.4h1.5l-1.7,7.7h-1.9l-1.7-7.7h1.5l0.9,4.9c0.1,0.4,0.1,0.9,0.2,1.3c0,0.2,0.1,0.4,0.1,0.6h0
			c0-0.2,0-0.4,0.1-0.6c0-0.4,0.1-0.9,0.2-1.3L167.9,1.4z"/>
		<path class="st1" d="M179.5,4.6c0.1-2,0.2-3.4,2.5-3.4c2.3,0,2.5,1.5,2.5,3.4v1.1c0,2.1-0.2,3.6-2.5,3.6c-2.4,0-2.5-1.5-2.5-3.6
			V4.6L179.5,4.6z M180.9,6.5c0,0.6,0,1.7,1,1.7c1,0,1-1.1,1-1.8v-2c0-0.6,0-2-1-2c-1.1,0-1,1.3-1,1.9V6.5z"/>
		<path class="st1" d="M195.1,9.1V1.4h3c0.3,0,1,0.2,1.5,0.9c0.3,0.5,0.4,1.4,0.4,2.7c0,1.5,0,3.3-1.2,4c-0.3,0.2-0.7,0.2-1.1,0.2
			H195.1L195.1,9.1z M197.1,8c1.3,0,1.4-0.7,1.4-2.9c0-1.8-0.2-2.5-1-2.5h-0.9V8H197.1z"/>
	</g>
</g>
</svg>
